  0
SECTION
  2
HEADER
  9
$ACADVER
  1
AC1009
  9
$INSBASE
 10
0.0
 20
0.0
 30
0.0
  9
$EXTMIN
 10
-0.025776
 20
0.0
 30
0.0
  9
$EXTMAX
 10
7.943454
 20
1.94705
 30
0.0
  9
$LIMMIN
 10
0.0
 20
0.0
  9
$LIMMAX
 10
12.0
 20
9.0
  9
$ORTHOMODE
 70
     0
  9
$REGENMODE
 70
     1
  9
$FILLMODE
 70
     1
  9
$QTEXTMODE
 70
     0
  9
$MIRRTEXT
 70
     1
  9
$DRAGMODE
 70
     2
  9
$LTSCALE
 40
1.0
  9
$OSMODE
 70
     0
  9
$ATTMODE
 70
     1
  9
$TEXTSIZE
 40
0.08
  9
$TRACEWID
 40
0.05
  9
$TEXTSTYLE
  7
STANDARD
  9
$CLAYER
  8
0
  9
$CELTYPE
  6
BYLAYER
  9
$CECOLOR
 62
   256
  9
$DIMSCALE
 40
1.0
  9
$DIMASZ
 40
0.18
  9
$DIMEXO
 40
0.0625
  9
$DIMDLI
 40
0.38
  9
$DIMRND
 40
0.0
  9
$DIMDLE
 40
0.0
  9
$DIMEXE
 40
0.18
  9
$DIMTP
 40
0.0
  9
$DIMTM
 40
0.0
  9
$DIMTXT
 40
0.18
  9
$DIMCEN
 40
0.09
  9
$DIMTSZ
 40
0.0
  9
$DIMTOL
 70
     0
  9
$DIMLIM
 70
     0
  9
$DIMTIH
 70
     1
  9
$DIMTOH
 70
     1
  9
$DIMSE1
 70
     0
  9
$DIMSE2
 70
     0
  9
$DIMTAD
 70
     0
  9
$DIMZIN
 70
     0
  9
$DIMBLK
  1

  9
$DIMASO
 70
     1
  9
$DIMSHO
 70
     0
  9
$DIMPOST
  1

  9
$DIMAPOST
  1

  9
$DIMALT
 70
     0
  9
$DIMALTD
 70
     2
  9
$DIMALTF
 40
25.4
  9
$DIMLFAC
 40
1.0
  9
$DIMTOFL
 70
     0
  9
$DIMTVP
 40
0.0
  9
$DIMTIX
 70
     0
  9
$DIMSOXD
 70
     0
  9
$DIMSAH
 70
     0
  9
$DIMBLK1
  1

  9
$DIMBLK2
  1

  9
$DIMSTYLE
  2
*UNNAMED
  9
$DIMCLRD
 70
     0
  9
$DIMCLRE
 70
     0
  9
$DIMCLRT
 70
     0
  9
$DIMTFAC
 40
1.0
  9
$DIMGAP
 40
0.09
  9
$LUNITS
 70
     2
  9
$LUPREC
 70
     4
  9
$SKETCHINC
 40
0.1
  9
$FILLETRAD
 40
0.0
  9
$AUNITS
 70
     0
  9
$AUPREC
 70
     0
  9
$MENU
  1
ACAD
  9
$ELEVATION
 40
0.0
  9
$PELEVATION
 40
0.0
  9
$THICKNESS
 40
0.0
  9
$LIMCHECK
 70
     0
  9
$BLIPMODE
 70
     1
  9
$CHAMFERA
 40
0.0
  9
$CHAMFERB
 40
0.0
  9
$SKPOLY
 70
     0
  9
$TDCREATE
 40
2448959.364634027
  9
$TDUPDATE
 40
2449325.439224652
  9
$TDINDWG
 40
0.4682870370
  9
$TDUSRTIMER
 40
0.4682870370
  9
$USRTIMER
 70
     1
  9
$ANGBASE
 50
0.0
  9
$ANGDIR
 70
     0
  9
$PDMODE
 70
     0
  9
$PDSIZE
 40
0.0
  9
$PLINEWID
 40
0.0
  9
$COORDS
 70
     0
  9
$SPLFRAME
 70
     0
  9
$SPLINETYPE
 70
     6
  9
$SPLINESEGS
 70
     8
  9
$ATTDIA
 70
     0
  9
$ATTREQ
 70
     1
  9
$HANDLING
 70
     0
  9
$HANDSEED
  5
0
  9
$SURFTAB1
 70
     6
  9
$SURFTAB2
 70
     6
  9
$SURFTYPE
 70
     6
  9
$SURFU
 70
     6
  9
$SURFV
 70
     6
  9
$UCSNAME
  2

  9
$UCSORG
 10
0.0
 20
0.0
 30
0.0
  9
$UCSXDIR
 10
1.0
 20
0.0
 30
0.0
  9
$UCSYDIR
 10
0.0
 20
1.0
 30
0.0
  9
$PUCSNAME
  2

  9
$PUCSORG
 10
0.0
 20
0.0
 30
0.0
  9
$PUCSXDIR
 10
1.0
 20
0.0
 30
0.0
  9
$PUCSYDIR
 10
0.0
 20
1.0
 30
0.0
  9
$USERI1
 70
     0
  9
$USERI2
 70
     0
  9
$USERI3
 70
     0
  9
$USERI4
 70
     0
  9
$USERI5
 70
     0
  9
$USERR1
 40
0.0
  9
$USERR2
 40
0.0
  9
$USERR3
 40
0.0
  9
$USERR4
 40
0.0
  9
$USERR5
 40
0.0
  9
$WORLDVIEW
 70
     1
  9
$SHADEDGE
 70
     3
  9
$SHADEDIF
 70
    70
  9
$TILEMODE
 70
     1
  9
$MAXACTVP
 70
    16
  9
$PINSBASE
 10
0.0
 20
0.0
 30
0.0
  9
$PLIMCHECK
 70
     0
  9
$PEXTMIN
 10
1.000000E+20
 20
1.000000E+20
 30
1.000000E+20
  9
$PEXTMAX
 10
-1.000000E+20
 20
-1.000000E+20
 30
-1.000000E+20
  9
$PLIMMIN
 10
0.0
 20
0.0
  9
$PLIMMAX
 10
12.0
 20
9.0
  9
$UNITMODE
 70
     0
  9
$VISRETAIN
 70
     0
  9
$PLINEGEN
 70
     0
  9
$PSLTSCALE
 70
     0
  9
$TREEDEPTH
 70
  3020
  9
$DWGCODEPAGE
  3
undefined
  0
ENDSEC
  0
SECTION
  2
TABLES
  0
TABLE
  2
VPORT
 70
     2
  0
VPORT
  2
*ACTIVE
 70
     0
 10
0.0
 20
0.0
 11
1.0
 21
1.0
 12
8.666182
 22
1.173913
 13
0.0
 23
0.0
 14
1.0
 24
1.0
 15
0.05
 25
0.05
 16
0.0
 26
0.0
 36
1.0
 17
0.0
 27
0.0
 37
0.0
 40
1.413043
 41
1.387409
 42
50.0
 43
0.0
 44
0.0
 50
0.0
 51
0.0
 71
     0
 72
   100
 73
     1
 74
     1
 75
     0
 76
     1
 77
     0
 78
     0
  0
ENDTAB
  0
TABLE
  2
LTYPE
 70
     1
  0
LTYPE
  2
CONTINUOUS
 70
    64
  3
Solid line
 72
    65
 73
     0
 40
0.0
  0
ENDTAB
  0
TABLE
  2
LAYER
 70
     1
  0
LAYER
  2
0
 70
    64
 62
     7
  6
CONTINUOUS
  0
ENDTAB
  0
TABLE
  2
STYLE
 70
     1
  0
STYLE
  2
STANDARD
 70
    64
 40
0.0
 41
1.0
 50
0.0
 71
     0
 42
0.08
  3
txt
  4

  0
ENDTAB
  0
TABLE
  2
VIEW
 70
     0
  0
ENDTAB
  0
TABLE
  2
UCS
 70
     0
  0
ENDTAB
  0
TABLE
  2
APPID
 70
     1
  0
APPID
  2
ACAD
 70
    64
  0
ENDTAB
  0
TABLE
  2
DIMSTYLE
 70
     0
  0
ENDTAB
  0
ENDSEC
  0
SECTION
  2
BLOCKS
  0
BLOCK
  8
0
  2
171
 70
    64
 10
0.0
 20
0.0
 30
0.0
  3
171
  0
CIRCLE
  8
0
 10
0.000379
 20
0.0
 30
0.0
 40
0.497197
  0
LINE
  8
0
 10
-0.199
 20
-0.199118
 30
0.0
 11
0.203146
 21
-0.199118
 31
0.0
  0
LINE
  8
0
 10
0.000379
 20
0.0
 30
0.0
 11
0.000379
 21
0.389374
 31
0.0
  0
LINE
  8
0
 10
-0.195314
 20
0.195825
 30
0.0
 11
0.193797
 21
0.195825
 31
0.0
  0
ENDBLK
  8
0
  0
BLOCK
  8
0
  2
172
 70
    64
 10
5.018236
 20
5.021632
 30
0.0
  3
172
  0
CIRCLE
  8
0
 10
5.039474
 20
5.021632
 30
0.0
 40
0.478234
  0
CIRCLE
  8
0
 10
5.039474
 20
5.021632
 30
0.0
 40
0.356903
  0
ENDBLK
  8
0
  0
BLOCK
  8
0
  2
173
 70
    64
 10
5.018236
 20
5.0
 30
0.0
  3
173
  0
POLYLINE
  8
0
 66
     1
 10
0.0
 20
0.0
 30
0.0
 70
     1
  0
VERTEX
  8
0
 10
4.714078
 20
4.717267
 30
0.0
  0
VERTEX
  8
0
 10
5.319361
 20
4.717267
 30
0.0
  0
VERTEX
  8
0
 10
5.322395
 20
5.325996
 30
0.0
  0
VERTEX
  8
0
 10
4.714078
 20
5.325996
 30
0.0
  0
SEQEND
  8
0
  0
POLYLINE
  8
0
 66
     1
 10
0.0
 20
0.0
 30
0.0
 70
     1
  0
VERTEX
  8
0
 10
4.518385
 20
4.500569
 30
0.0
  0
VERTEX
  8
0
 10
5.539705
 20
4.521442
 30
0.0
  0
VERTEX
  8
0
 10
5.518088
 20
5.521822
 30
0.0
  0
VERTEX
  8
0
 10
4.497147
 20
5.521822
 30
0.0
  0
SEQEND
  8
0
  0
ENDBLK
  8
0
  0
BLOCK
  8
0
  2
174
 70
    64
 10
5.017857
 20
5.021632
 30
0.0
  3
174
  0
POLYLINE
  8
0
 66
     1
 10
0.0
 20
0.0
 30
0.0
 70
     1
  0
VERTEX
  8
0
 10
4.214226
 20
4.50019
 30
0.0
  0
VERTEX
  8
0
 10
5.821867
 20
4.50019
 30
0.0
  0
VERTEX
  8
0
 10
5.821867
 20
5.521442
 30
0.0
  0
VERTEX
  8
0
 10
4.214226
 20
5.50019
 30
0.0
  0
SEQEND
  8
0
  0
LINE
  8
0
 10
4.409919
 20
5.021632
 30
0.0
 11
5.604936
 21
5.021632
 31
0.0
  0
LINE
  8
0
 10
4.605612
 20
5.304365
 30
0.0
 11
4.605612
 21
4.717268
 31
0.0
  0
LINE
  8
0
 10
5.018236
 20
4.717268
 30
0.0
 11
5.018236
 21
5.304365
 31
0.0
  0
LINE
  8
0
 10
5.409243
 20
5.304365
 30
0.0
 11
5.409243
 21
4.717268
 31
0.0
  0
ENDBLK
  8
0
  0
BLOCK
  8
0
  2
175
 70
    64
 10
5.018236
 20
5.0
 30
0.0
  3
175
  0
POLYLINE
  8
0
 66
     1
 10
0.0
 20
0.0
 30
0.0
 70
     1
  0
VERTEX
  8
0
 10
4.214226
 20
5.49981
 30
0.0
  0
VERTEX
  8
0
 10
4.214226
 20
4.521442
 30
0.0
  0
VERTEX
  8
0
 10
5.821867
 20
4.50019
 30
0.0
  0
VERTEX
  8
0
 10
5.821867
 20
5.478558
 30
0.0
  0
SEQEND
  8
0
  0
LINE
  8
0
 10
4.605233
 20
5.50019
 30
0.0
 11
4.605233
 21
4.478558
 31
0.0
  0
LINE
  8
0
 10
5.017857
 20
5.478558
 30
0.0
 11
5.017857
 21
4.478558
 31
0.0
  0
LINE
  8
0
 10
5.409243
 20
5.50019
 30
0.0
 11
5.409243
 21
4.478558
 31
0.0
  0
ENDBLK
  8
0
  0
BLOCK
  8
0
  2
180
 70
    64
 10
5.018236
 20
5.0
 30
0.0
  3
180
  0
LINE
  8
0
 10
4.518384
 20
5.021632
 30
0.0
 11
5.518087
 21
5.021632
 31
0.0
  0
LINE
  8
0
 10
5.018236
 20
5.021632
 30
0.0
 11
5.518087
 21
4.608729
 31
0.0
  0
ENDBLK
  8
0
  0
BLOCK
  8
0
  2
178
 70
    64
 10
5.018236
 20
5.021632
 30
0.0
  3
178
  0
POLYLINE
  8
0
 66
     1
 10
0.0
 20
0.0
 30
0.0
 70
     1
  0
VERTEX
  8
0
 10
4.518385
 20
4.521442
 30
0.0
  0
VERTEX
  8
0
 10
5.517708
 20
4.50019
 30
0.0
  0
VERTEX
  8
0
 10
5.517708
 20
5.478558
 30
0.0
  0
VERTEX
  8
0
 10
4.518385
 20
5.478558
 30
0.0
  0
SEQEND
  8
0
  0
ENDBLK
  8
0
  0
BLOCK
  8
0
  2
177
 70
    64
 10
5.018236
 20
5.0
 30
0.0
  3
177
  0
CIRCLE
  8
0
 10
5.017857
 20
5.0
 30
0.0
 40
0.367493
  0
CIRCLE
  8
0
 10
5.017857
 20
5.0
 30
0.0
 40
0.497197
  0
TEXT
  8
0
 10
4.85119
 20
4.195446
 30
0.0
 40
0.2
  1
NP
 72
     1
 11
5.017857
 21
4.195446
 31
0.0
  0
ENDBLK
  8
0
  0
BLOCK
  8
0
  2
176
 70
    64
 10
0.0
 20
0.0
 30
0.0
  3
176
  0
CIRCLE
  8
0
 10
0.004183
 20
-0.002093
 30
0.0
 40
0.249211
  0
LINE
  8
0
 10
0.015066
 20
0.76342
 30
0.0
 11
0.015066
 21
0.244411
 31
0.0
  0
LINE
  8
0
 10
-0.228131
 20
0.518117
 30
0.0
 11
0.260628
 21
1.007207
 31
0.0
  0
LINE
  8
0
 10
-0.228131
 20
1.007207
 30
0.0
 11
0.260628
 21
0.518117
 31
0.0
  0
ENDBLK
  8
0
  0
BLOCK
  8
0
  2
182
 70
    64
 10
5.018236
 20
5.021632
 30
0.0
  3
182
  0
CIRCLE
  8
0
 10
5.018236
 20
5.021632
 30
0.0
 40
0.497197
  0
CIRCLE
  8
0
 10
5.018236
 20
5.021632
 30
0.0
 40
0.108086
  0
ENDBLK
  8
0
  0
BLOCK
  8
0
  2
181
 70
    64
 10
5.018236
 20
5.0
 30
0.0
  3
181
  0
CIRCLE
  8
0
 10
5.018236
 20
5.0
 30
0.0
 40
0.324259
  0
LINE
  8
0
 10
5.018236
 20
5.304365
 30
0.0
 11
5.018236
 21
5.891082
 31
0.0
  0
LINE
  8
0
 10
4.822543
 20
5.891082
 30
0.0
 11
5.213929
 21
5.891082
 31
0.0
  0
LINE
  8
0
 10
5.018236
 20
5.608729
 30
0.0
 11
4.714078
 21
5.456547
 31
0.0
  0
LINE
  8
0
 10
4.800926
 20
5.347628
 30
0.0
 11
4.605612
 21
5.565086
 31
0.0
  0
LINE
  8
0
 10
5.018236
 20
5.587097
 30
0.0
 11
5.322395
 21
5.456547
 31
0.0
  0
LINE
  8
0
 10
5.257164
 20
5.325996
 30
0.0
 11
5.452857
 21
5.587097
 31
0.0
  0
ENDBLK
  8
0
  0
BLOCK
  8
0
  2
6
 70
    64
 10
5.018236
 20
5.021252
 30
0.0
  3
6
  0
LINE
  8
0
 10
5.517708
 20
5.50019
 30
0.0
 11
4.518385
 21
4.50019
 31
0.0
  0
LINE
  8
0
 10
4.518385
 20
5.50019
 30
0.0
 11
5.517708
 21
4.478558
 31
0.0
  0
ENDBLK
  8
0
  0
BLOCK
  8
0
  2
183
 70
    64
 10
5.018236
 20
5.0
 30
0.0
  3
183
  0
CIRCLE
  8
0
 10
5.018236
 20
5.00038
 30
0.0
 40
0.497197
  0
LINE
  8
0
 10
4.996998
 20
5.50019
 30
0.0
 11
4.996998
 21
4.522201
 31
0.0
  0
LINE
  8
0
 10
4.540381
 20
5.00038
 30
0.0
 11
5.518088
 21
5.00038
 31
0.0
  0
ENDBLK
  8
0
  0
BLOCK
  8
0
  2
184
 70
    64
 10
5.018236
 20
5.0
 30
0.0
  3
184
  0
POLYLINE
  8
0
 66
     1
 10
0.0
 20
0.0
 30
0.0
 70
     1
  0
VERTEX
  8
0
 10
4.518764
 20
4.738899
 30
0.0
  0
VERTEX
  8
0
 10
5.539705
 20
4.738899
 30
0.0
  0
VERTEX
  8
0
 10
5.518467
 20
5.23871
 30
0.0
  0
VERTEX
  8
0
 10
4.519143
 20
5.239089
 30
0.0
  0
SEQEND
  8
0
  0
LINE
  8
0
 10
4.518764
 20
4.738899
 30
0.0
 11
5.518467
 21
5.239089
 31
0.0
  0
ENDBLK
  8
0
  0
BLOCK
  8
0
  2
185
 70
    64
 10
5.018236
 20
5.0
 30
0.0
  3
185
  0
LINE
  8
0
 10
4.518385
 20
5.021632
 30
0.0
 11
5.517708
 21
5.021632
 31
0.0
  0
LINE
  8
0
 10
5.018236
 20
5.021632
 30
0.0
 11
5.018236
 21
5.521442
 31
0.0
  0
ENDBLK
  8
0
  0
BLOCK
  8
0
  2
186
 70
    64
 10
5.018236
 20
5.021632
 30
0.0
  3
186
  0
CIRCLE
  8
0
 10
5.018236
 20
5.0
 30
0.0
 40
0.173055
  0
LINE
  8
0
 10
5.018236
 20
5.49981
 30
0.0
 11
5.018236
 21
5.194687
 31
0.0
  0
POLYLINE
  8
0
 66
     1
 10
0.0
 20
0.0
 30
0.0
 41
0.2
  0
VERTEX
  8
0
 10
4.40954
 20
5.49981
 30
0.0
  0
VERTEX
  8
0
 10
4.714078
 20
5.49981
 30
0.0
 41
0.0
  0
VERTEX
  8
0
 10
5.319361
 20
5.49981
 30
0.0
 40
0.2
 41
0.0
  0
VERTEX
  8
0
 10
5.600385
 20
5.49981
 30
0.0
 41
0.0
  0
SEQEND
  8
0
  0
ENDBLK
  8
0
  0
BLOCK
  8
0
  2
187
 70
    64
 10
5.018236
 20
5.0
 30
0.0
  3
187
  0
CIRCLE
  8
0
 10
5.018236
 20
5.021252
 30
0.0
 40
0.173055
  0
LINE
  8
0
 10
5.018236
 20
5.456167
 30
0.0
 11
5.018236
 21
5.196584
 31
0.0
  0
CIRCLE
  8
0
 10
5.018236
 20
5.608349
 30
0.0
 40
0.173055
  0
LINE
  8
0
 10
5.018236
 20
6.086907
 30
0.0
 11
5.018236
 21
5.784061
 31
0.0
  0
POLYLINE
  8
0
 66
     1
 10
0.0
 20
0.0
 30
0.0
 41
0.2
  0
VERTEX
  8
0
 10
4.409919
 20
6.108159
 30
0.0
  0
VERTEX
  8
0
 10
4.696253
 20
6.103985
 30
0.0
 41
0.0
  0
VERTEX
  8
0
 10
5.301536
 20
6.103985
 30
0.0
 40
0.2
 41
0.0
  0
VERTEX
  8
0
 10
5.604177
 20
6.103985
 30
0.0
 41
0.0
  0
SEQEND
  8
0
  0
ENDBLK
  8
0
  0
BLOCK
  8
0
  2
188
 70
    64
 10
5.018236
 20
5.021632
 30
0.0
  3
188
  0
CIRCLE
  8
0
 10
4.627229
 20
4.847438
 30
0.0
 40
0.172938
  0
LINE
  8
0
 10
4.779309
 20
4.934345
 30
0.0
 11
5.257543
 21
5.086528
 31
0.0
  0
CIRCLE
  8
0
 10
5.409622
 20
5.13055
 30
0.0
 40
0.164726
  0
LINE
  8
0
 10
5.018236
 20
5.543074
 30
0.0
 11
5.018236
 21
5.002277
 31
0.0
  0
POLYLINE
  8
0
 66
     1
 10
0.0
 20
0.0
 30
0.0
 41
0.2
  0
VERTEX
  8
0
 10
4.410298
 20
5.543074
 30
0.0
  0
VERTEX
  8
0
 10
4.734557
 20
5.543074
 30
0.0
 41
0.0
  0
VERTEX
  8
0
 10
5.318223
 20
5.543074
 30
0.0
 40
0.2
 41
0.0
  0
VERTEX
  8
0
 10
5.620864
 20
5.543074
 30
0.0
 41
0.0
  0
SEQEND
  8
0
  0
ENDBLK
  8
0
  0
BLOCK
  8
0
  2
189
 70
    64
 10
5.039853
 20
5.021632
 30
0.0
  3
189
  0
LINE
  8
0
 10
4.996998
 20
5.49981
 30
0.0
 11
4.996998
 21
4.959013
 31
0.0
  0
CIRCLE
  8
0
 10
4.735695
 20
5.108539
 30
0.0
 40
0.172938
  0
LINE
  8
0
 10
4.887395
 20
5.043264
 30
0.0
 11
5.103567
 21
4.891841
 31
0.0
  0
CIRCLE
  8
0
 10
5.213929
 20
4.804175
 30
0.0
 40
0.172938
  0
POLYLINE
  8
0
 66
     1
 10
0.0
 20
0.0
 30
0.0
 41
0.2
  0
VERTEX
  8
0
 10
4.431157
 20
5.49981
 30
0.0
  0
VERTEX
  8
0
 10
4.733799
 20
5.49981
 30
0.0
 41
0.0
  0
VERTEX
  8
0
 10
5.317464
 20
5.49981
 30
0.0
 40
0.2
 41
0.0
  0
VERTEX
  8
0
 10
5.620106
 20
5.49981
 30
0.0
 41
0.0
  0
SEQEND
  8
0
  0
ENDBLK
  8
0
  0
BLOCK
  8
0
  2
220
 70
    64
 10
5.018236
 20
5.021632
 30
0.0
  3
220
  0
POLYLINE
  8
0
 66
     1
 10
0.0
 20
0.0
 30
0.0
 70
     1
  0
VERTEX
  8
0
 10
4.518385
 20
4.521063
 30
0.0
  0
VERTEX
  8
0
 10
5.517708
 20
4.521442
 30
0.0
  0
VERTEX
  8
0
 10
5.517708
 20
5.478178
 30
0.0
  0
VERTEX
  8
0
 10
4.518385
 20
5.478178
 30
0.0
  0
SEQEND
  8
0
  0
CIRCLE
  8
0
 10
5.018236
 20
5.0
 30
0.0
 40
0.361746
  0
ENDBLK
  8
0
  0
BLOCK
  8
0
  2
5
 70
    64
 10
0.0
 20
0.0
 30
0.0
  3
5
  0
LINE
  8
0
 10
-0.499667
 20
0.0
 30
0.0
 11
0.499667
 21
0.0
 31
0.0
  0
LINE
  8
0
 10
0.0
 20
0.5
 30
0.0
 11
0.0
 21
-0.5
 31
0.0
  0
ENDBLK
  8
0
  0
BLOCK
  8
0
  2
217
 70
    64
 10
0.0
 20
0.0
 30
0.0
  3
217
  0
POLYLINE
  8
0
 66
     1
 10
0.0
 20
0.0
 30
0.0
 70
     1
  0
VERTEX
  8
0
 10
-0.197413
 20
0.200536
 30
0.0
  0
VERTEX
  8
0
 10
0.203395
 20
0.200536
 30
0.0
  0
VERTEX
  8
0
 10
0.203395
 20
-0.200536
 30
0.0
  0
VERTEX
  8
0
 10
-0.197413
 20
-0.200536
 30
0.0
  0
SEQEND
  8
0
  0
LINE
  8
0
 10
0.002991
 20
0.475898
 30
0.0
 11
0.002991
 21
0.200536
 31
0.0
  0
POLYLINE
  8
0
 66
     1
 10
0.0
 20
0.0
 30
0.0
 41
0.2
  0
VERTEX
  8
0
 10
-0.605705
 20
0.478178
 30
0.0
  0
VERTEX
  8
0
 10
-0.301167
 20
0.478178
 30
0.0
 41
0.0
  0
VERTEX
  8
0
 10
0.304116
 20
0.478178
 30
0.0
 40
0.2
 41
0.0
  0
VERTEX
  8
0
 10
0.58514
 20
0.478178
 30
0.0
 41
0.0
  0
SEQEND
  8
0
  0
ENDBLK
  8
0
  0
BLOCK
  8
0
  2
26
 70
    64
 10
0.0
 20
0.0
 30
0.0
  3
26
  0
POLYLINE
  8
0
 66
     1
 10
0.0
 20
0.0
 30
0.0
  0
VERTEX
  8
0
 10
-0.456254
 20
0.449679
 30
0.0
  0
VERTEX
  8
0
 10
0.449023
 20
0.449679
 30
0.0
  0
VERTEX
  8
0
 10
0.448311
 20
-0.458045
 30
0.0
  0
SEQEND
  8
0
  0
POLYLINE
  8
0
 66
     1
 10
0.0
 20
0.0
 30
0.0
 40
1.275
  0
VERTEX
  8
0
 10
-0.003615
 20
0.000403
 30
0.0
  0
VERTEX
  8
0
 10
-0.452633
 20
-0.448872
 30
0.0
 40
0.0
  0
SEQEND
  8
0
  0
ENDBLK
  8
0
  0
BLOCK
  8
0
  2
219
 70
    64
 10
0.0
 20
0.0
 30
0.0
  3
219
  0
POLYLINE
  8
0
 66
     1
 10
0.0
 20
0.0
 30
0.0
 41
0.2
  0
VERTEX
  8
0
 10
-0.606282
 20
0.502333
 30
0.0
  0
VERTEX
  8
0
 10
-0.301744
 20
0.502333
 30
0.0
 41
0.0
  0
VERTEX
  8
0
 10
0.303539
 20
0.502333
 30
0.0
 40
0.2
 41
0.0
  0
VERTEX
  8
0
 10
0.584563
 20
0.502333
 30
0.0
 41
0.0
  0
SEQEND
  8
0
  0
LINE
  8
0
 10
0.002414
 20
0.5
 30
0.0
 11
0.002414
 21
0.0
 31
0.0
  0
LINE
  8
0
 10
0.002414
 20
0.0
 30
0.0
 11
0.301759
 21
0.0
 31
0.0
  0
CIRCLE
  8
0
 10
0.451432
 20
0.0
 30
0.0
 40
0.149673
  0
LINE
  8
0
 10
0.0
 20
0.0
 30
0.0
 11
-0.296931
 21
0.0
 31
0.0
  0
CIRCLE
  8
0
 10
-0.449018
 20
0.0
 30
0.0
 40
0.152087
  0
LINE
  8
0
 10
0.101391
 20
0.347826
 30
0.0
 11
-0.098977
 21
0.149758
 31
0.0
  0
LINE
  8
0
 10
-0.098977
 20
0.347826
 30
0.0
 11
0.101391
 21
0.149758
 31
0.0
  0
ENDBLK
  8
0
  0
BLOCK
  8
0
  2
218
 70
    64
 10
0.0
 20
0.0
 30
0.0
  3
218
  0
CIRCLE
  8
0
 10
0.0
 20
0.0
 30
0.0
 40
0.248897
  0
POLYLINE
  8
0
 66
     1
 10
0.0
 20
0.0
 30
0.0
  0
VERTEX
  8
0
 10
0.0
 20
0.244749
 30
0.0
  0
VERTEX
  8
0
 10
0.0
 20
0.850399
 30
0.0
 42
1.0
  0
VERTEX
  8
0
 10
0.456042
 20
0.850399
 30
0.0
 42
-4.028258
  0
SEQEND
  8
0
  0
ENDBLK
  8
0
  0
BLOCK
  8
0
  2
215
 70
    64
 10
0.0
 20
0.0
 30
0.0
  3
215
  0
CIRCLE
  8
0
 10
0.0
 20
0.0
 30
0.0
 40
0.248897
  0
LINE
  8
0
 10
0.0
 20
0.244749
 30
0.0
 11
0.0
 21
0.850399
 31
0.0
  0
ENDBLK
  8
0
  0
BLOCK
  8
0
  2
47
 70
    64
 10
0.0
 20
0.0
 30
0.0
  3
47
  0
CIRCLE
  8
0
 10
0.0
 20
0.0
 30
0.0
 40
0.254504
  0
POLYLINE
  8
0
 66
     1
 10
0.0
 20
0.0
 30
0.0
 41
0.2
  0
VERTEX
  8
0
 10
0.351815
 20
0.756448
 30
0.0
 41
0.4
  0
VERTEX
  8
0
 10
0.0
 20
0.756448
 30
0.0
 41
0.0
  0
VERTEX
  8
0
 10
0.0
 20
0.247156
 30
0.0
 41
0.0
  0
SEQEND
  8
0
  0
ENDBLK
  8
0
  0
BLOCK
  8
0
  2
216
 70
    64
 10
0.0
 20
0.0
 30
0.0
  3
216
  0
POLYLINE
  8
0
 66
     1
 10
0.0
 20
0.0
 30
0.0
  0
VERTEX
  8
0
 10
0.0
 20
-0.402384
 30
0.0
  0
VERTEX
  8
0
 10
0.0
 20
0.199118
 30
0.0
 40
0.3
  0
VERTEX
  8
0
 10
0.0
 20
0.601502
 30
0.0
  0
SEQEND
  8
0
  0
ENDBLK
  8
0
  0
BLOCK
  8
0
  2
190
 70
    64
 10
0.0
 20
0.0
 30
0.0
  3
190
  0
CIRCLE
  8
0
 10
0.0
 20
0.0
 30
0.0
 40
0.201967
  0
POLYLINE
  8
0
 66
     1
 10
0.0
 20
0.0
 30
0.0
  0
VERTEX
  8
0
 10
0.0
 20
0.198295
 30
0.0
  0
VERTEX
  8
0
 10
0.0
 20
0.649967
 30
0.0
  0
VERTEX
  8
0
 10
0.198183
 20
0.649967
 30
0.0
  0
VERTEX
  8
0
 10
-0.00367
 20
0.947409
 30
0.0
  0
VERTEX
  8
0
 10
-0.201853
 20
0.649967
 30
0.0
  0
VERTEX
  8
0
 10
0.0
 20
0.649967
 30
0.0
  0
SEQEND
  8
0
  0
ENDBLK
  8
0
  0
BLOCK
  8
0
  2
191
 70
    64
 10
0.0
 20
0.0
 30
0.0
  3
191
  0
CIRCLE
  8
0
 10
0.0
 20
0.0
 30
0.0
 40
0.201967
  0
POLYLINE
  8
0
 66
     1
 10
0.0
 20
0.0
 30
0.0
  0
VERTEX
  8
0
 10
0.0
 20
0.197936
 30
0.0
  0
VERTEX
  8
0
 10
0.0
 20
0.647305
 30
0.0
  0
VERTEX
  8
0
 10
0.20316
 20
0.946884
 30
0.0
  0
VERTEX
  8
0
 10
-0.197814
 20
0.946884
 30
0.0
  0
VERTEX
  8
0
 10
0.0
 20
0.647305
 30
0.0
  0
SEQEND
  8
0
  0
ENDBLK
  8
0
  0
BLOCK
  8
0
  2
192
 70
    64
 10
0.0
 20
0.0
 30
0.0
  3
192
  0
CIRCLE
  8
0
 10
0.0
 20
0.0
 30
0.0
 40
0.201967
  0
POLYLINE
  8
0
 66
     1
 10
0.0
 20
0.0
 30
0.0
  0
VERTEX
  8
0
 10
0.0
 20
0.197936
 30
0.0
  0
VERTEX
  8
0
 10
0.0
 20
0.652654
 30
0.0
  0
VERTEX
  8
0
 10
0.197814
 20
0.652654
 30
0.0
  0
VERTEX
  8
0
 10
0.197814
 20
0.850591
 30
0.0
  0
VERTEX
  8
0
 10
-0.20316
 20
0.850591
 30
0.0
  0
VERTEX
  8
0
 10
-0.20316
 20
0.652654
 30
0.0
  0
VERTEX
  8
0
 10
0.0
 20
0.652654
 30
0.0
  0
SEQEND
  8
0
  0
ENDBLK
  8
0
  0
BLOCK
  8
0
  2
193
 70
    64
 10
0.0
 20
0.0
 30
0.0
  3
193
  0
CIRCLE
  8
0
 10
0.0
 20
0.0
 30
0.0
 40
0.201967
  0
LINE
  8
0
 10
0.0
 20
0.203286
 30
0.0
 11
0.0
 21
0.700801
 31
0.0
  0
LINE
  8
0
 10
-0.197814
 20
0.700801
 30
0.0
 11
0.197814
 21
0.700801
 31
0.0
  0
ENDBLK
  8
0
  0
BLOCK
  8
0
  2
194
 70
    64
 10
0.0
 20
0.0
 30
0.0
  3
194
  0
LINE
  8
0
 10
-0.197814
 20
0.0
 30
0.0
 11
0.197814
 21
0.0
 31
0.0
  0
LINE
  8
0
 10
0.0
 20
0.0
 30
0.0
 11
0.0
 21
0.845241
 31
0.0
  0
LINE
  8
0
 10
-0.197814
 20
0.647305
 30
0.0
 11
0.197814
 21
1.048527
 31
0.0
  0
LINE
  8
0
 10
-0.197814
 20
1.048527
 30
0.0
 11
0.197814
 21
0.647305
 31
0.0
  0
ENDBLK
  8
0
  0
BLOCK
  8
0
  2
195
 70
    64
 10
0.0
 20
0.0
 30
0.0
  3
195
  0
LINE
  8
0
 10
-0.197814
 20
0.0
 30
0.0
 11
0.197814
 21
0.0
 31
0.0
  0
LINE
  8
0
 10
0.0
 20
0.0
 30
0.0
 11
0.0
 21
0.845241
 31
0.0
  0
LINE
  8
0
 10
-0.197814
 20
0.647305
 30
0.0
 11
0.197814
 21
1.048527
 31
0.0
  0
LINE
  8
0
 10
-0.20316
 20
0.748948
 30
0.0
 11
0.096234
 21
1.048527
 31
0.0
  0
LINE
  8
0
 10
-0.10158
 20
1.048527
 30
0.0
 11
0.197814
 21
0.748948
 31
0.0
  0
LINE
  8
0
 10
-0.197814
 20
1.048527
 30
0.0
 11
0.197814
 21
0.647305
 31
0.0
  0
ENDBLK
  8
0
  0
BLOCK
  8
0
  2
196
 70
    64
 10
0.0
 20
0.0
 30
0.0
  3
196
  0
POLYLINE
  8
0
 66
     1
 10
0.0
 20
0.0
 30
0.0
 70
     1
  0
VERTEX
  8
0
 10
-0.20316
 20
0.128391
 30
0.0
  0
VERTEX
  8
0
 10
0.197814
 20
0.128391
 30
0.0
  0
VERTEX
  8
0
 10
0.197814
 20
-0.123041
 30
0.0
  0
VERTEX
  8
0
 10
-0.20316
 20
-0.123041
 30
0.0
  0
SEQEND
  8
0
  0
LINE
  8
0
 10
0.0
 20
0.128391
 30
0.0
 11
0.0
 21
0.973632
 31
0.0
  0
LINE
  8
0
 10
-0.197814
 20
0.775696
 30
0.0
 11
0.197814
 21
1.176918
 31
0.0
  0
LINE
  8
0
 10
-0.197814
 20
1.176918
 30
0.0
 11
0.197814
 21
0.775696
 31
0.0
  0
ENDBLK
  8
0
  0
BLOCK
  8
0
  2
197
 70
    64
 10
0.0
 20
0.0
 30
0.0
  3
197
  0
POLYLINE
  8
0
 66
     1
 10
0.0
 20
0.0
 30
0.0
 70
     1
  0
VERTEX
  8
0
 10
0.0
 20
0.254108
 30
0.0
  0
VERTEX
  8
0
 10
-0.25395
 20
0.0
 30
0.0
  0
VERTEX
  8
0
 10
0.0
 20
-0.24742
 30
0.0
  0
VERTEX
  8
0
 10
0.247268
 20
0.0
 30
0.0
  0
SEQEND
  8
0
  0
LINE
  8
0
 10
0.003739
 20
0.594872
 30
0.0
 11
0.003739
 21
0.25067
 31
0.0
  0
POLYLINE
  8
0
 66
     1
 10
0.0
 20
0.0
 30
0.0
 41
0.25
  0
VERTEX
  8
0
 10
-0.757131
 20
0.597723
 30
0.0
  0
VERTEX
  8
0
 10
-0.376459
 20
0.597723
 30
0.0
 41
0.0
  0
VERTEX
  8
0
 10
0.380145
 20
0.597723
 30
0.0
 40
0.25
 41
0.0
  0
VERTEX
  8
0
 10
0.731425
 20
0.597723
 30
0.0
 41
0.0
  0
SEQEND
  8
0
  0
ENDBLK
  8
0
  0
BLOCK
  8
0
  2
198
 70
    64
 10
0.0
 20
0.0
 30
0.0
  3
198
  0
CIRCLE
  8
0
 10
-0.001156
 20
-0.000025
 30
0.0
 40
0.252459
  0
LINE
  8
0
 10
-0.001156
 20
0.247395
 30
0.0
 11
-0.001156
 21
0.875976
 31
0.0
  0
LINE
  8
0
 10
-0.248424
 20
0.875976
 30
0.0
 11
0.252794
 21
0.875976
 31
0.0
  0
LINE
  8
0
 10
-0.122595
 20
1.001088
 30
0.0
 11
-0.371739
 21
0.755761
 31
0.0
  0
LINE
  8
0
 10
-0.371739
 20
1.001088
 30
0.0
 11
-0.122595
 21
0.751805
 31
0.0
  0
LINE
  8
0
 10
0.373086
 20
0.996343
 30
0.0
 11
0.125819
 21
0.748923
 31
0.0
  0
LINE
  8
0
 10
0.125819
 20
0.996343
 30
0.0
 11
0.373086
 21
0.748923
 31
0.0
  0
ENDBLK
  8
0
  0
BLOCK
  8
0
  2
199
 70
    64
 10
0.0
 20
0.0
 30
0.0
  3
199
  0
CIRCLE
  8
0
 10
0.0
 20
0.0
 30
0.0
 40
0.252459
  0
POLYLINE
  8
0
 66
     1
 10
0.0
 20
0.0
 30
0.0
  0
VERTEX
  8
0
 10
0.005643
 20
0.252499
 30
0.0
  0
VERTEX
  8
0
 10
0.005643
 20
1.003733
 30
0.0
  0
VERTEX
  8
0
 10
0.318459
 20
1.00005
 30
0.0
  0
SEQEND
  8
0
  0
LINE
  8
0
 10
0.193332
 20
1.00005
 30
0.0
 11
0.009322
 21
0.815925
 31
0.0
  0
ENDBLK
  8
0
  0
BLOCK
  8
0
  2
200
 70
    64
 10
0.0
 20
0.0
 30
0.0
  3
200
  0
POLYLINE
  8
0
 66
     1
 10
0.0
 20
0.0
 30
0.0
 70
     1
  0
VERTEX
  8
0
 10
-0.2492
 20
0.152841
 30
0.0
  0
VERTEX
  8
0
 10
0.2492
 20
0.152841
 30
0.0
  0
VERTEX
  8
0
 10
0.2492
 20
-0.156863
 30
0.0
  0
VERTEX
  8
0
 10
-0.2492
 20
-0.156863
 30
0.0
  0
SEQEND
  8
0
  0
POLYLINE
  8
0
 66
     1
 10
0.0
 20
0.0
 30
0.0
  0
VERTEX
  8
0
 10
0.003066
 20
0.15362
 30
0.0
  0
VERTEX
  8
0
 10
0.003066
 20
0.904855
 30
0.0
  0
VERTEX
  8
0
 10
0.315881
 20
0.901173
 30
0.0
  0
SEQEND
  8
0
  0
LINE
  8
0
 10
0.190755
 20
0.901173
 30
0.0
 11
0.006746
 21
0.717046
 31
0.0
  0
ENDBLK
  8
0
  0
BLOCK
  8
0
  2
201
 70
    64
 10
0.0
 20
0.0
 30
0.0
  3
201
  0
POLYLINE
  8
0
 66
     1
 10
0.0
 20
0.0
 30
0.0
 70
     1
  0
VERTEX
  8
0
 10
-0.292773
 20
0.009774
 30
0.0
 50
30.0
  0
VERTEX
  8
0
 10
0.138855
 20
0.258974
 30
0.0
 50
30.0
  0
VERTEX
  8
0
 10
0.295718
 20
-0.012721
 30
0.0
 50
30.0
  0
VERTEX
  8
0
 10
-0.13591
 20
-0.261921
 30
0.0
 50
30.0
  0
SEQEND
  8
0
  0
LINE
  8
0
 10
-0.13591
 20
-0.261921
 30
0.0
 11
0.135374
 21
0.256964
 31
0.0
  0
LINE
  8
0
 10
-0.292773
 20
0.009774
 30
0.0
 11
0.295718
 21
-0.012721
 31
0.0
  0
POLYLINE
  8
0
 66
     1
 10
0.0
 20
0.0
 30
0.0
  0
VERTEX
  8
0
 10
0.0
 20
0.180996
 30
0.0
  0
VERTEX
  8
0
 10
0.001624
 20
0.907201
 30
0.0
  0
VERTEX
  8
0
 10
0.314439
 20
0.903519
 30
0.0
  0
SEQEND
  8
0
  0
LINE
  8
0
 10
0.189312
 20
0.903519
 30
0.0
 11
0.005304
 21
0.719394
 31
0.0
  0
ENDBLK
  8
0
  0
BLOCK
  8
0
  2
203
 70
    64
 10
0.0
 20
0.0
 30
0.0
  3
203
  0
POLYLINE
  8
0
 66
     1
 10
0.0
 20
0.0
 30
0.0
 70
     1
  0
VERTEX
  8
0
 10
-0.292773
 20
0.009774
 30
0.0
 50
30.0
  0
VERTEX
  8
0
 10
0.138855
 20
0.258974
 30
0.0
 50
30.0
  0
VERTEX
  8
0
 10
0.295718
 20
-0.012721
 30
0.0
 50
30.0
  0
VERTEX
  8
0
 10
-0.13591
 20
-0.261921
 30
0.0
 50
30.0
  0
SEQEND
  8
0
  0
LINE
  8
0
 10
-0.13591
 20
-0.261921
 30
0.0
 11
0.135374
 21
0.256964
 31
0.0
  0
LINE
  8
0
 10
-0.292773
 20
0.009774
 30
0.0
 11
0.295718
 21
-0.012721
 31
0.0
  0
POLYLINE
  8
0
 66
     1
 10
0.0
 20
0.0
 30
0.0
  0
VERTEX
  8
0
 10
0.0
 20
0.180996
 30
0.0
  0
VERTEX
  8
0
 10
0.001624
 20
0.907201
 30
0.0
  0
VERTEX
  8
0
 10
-0.301453
 20
0.904979
 30
0.0
  0
SEQEND
  8
0
  0
LINE
  8
0
 10
0.0
 20
0.715939
 30
0.0
 11
-0.18489
 21
0.900958
 31
0.0
  0
ENDBLK
  8
0
  0
BLOCK
  8
0
  2
202
 70
    64
 10
0.0
 20
0.0
 30
0.0
  3
202
  0
POLYLINE
  8
0
 66
     1
 10
0.0
 20
0.0
 30
0.0
 70
     1
  0
VERTEX
  8
0
 10
-0.2492
 20
0.152841
 30
0.0
  0
VERTEX
  8
0
 10
0.2492
 20
0.152841
 30
0.0
  0
VERTEX
  8
0
 10
0.2492
 20
-0.156863
 30
0.0
  0
VERTEX
  8
0
 10
-0.2492
 20
-0.156863
 30
0.0
  0
SEQEND
  8
0
  0
POLYLINE
  8
0
 66
     1
 10
0.0
 20
0.0
 30
0.0
  0
VERTEX
  8
0
 10
0.003066
 20
0.15362
 30
0.0
  0
VERTEX
  8
0
 10
0.003066
 20
0.904855
 30
0.0
  0
VERTEX
  8
0
 10
-0.31351
 20
0.900957
 30
0.0
  0
SEQEND
  8
0
  0
LINE
  8
0
 10
0.0
 20
0.715939
 30
0.0
 11
-0.180871
 21
0.900957
 31
0.0
  0
ENDBLK
  8
0
  0
BLOCK
  8
0
  2
204
 70
    64
 10
0.0
 20
0.0
 30
0.0
  3
204
  0
CIRCLE
  8
0
 10
0.003756
 20
0.001723
 30
0.0
 40
0.216319
  0
LINE
  8
0
 10
0.0
 20
0.625551
 30
0.0
 11
0.0
 21
0.212508
 31
0.0
  0
POLYLINE
  8
0
 66
     1
 10
0.0
 20
0.0
 30
0.0
 41
0.25
  0
VERTEX
  8
0
 10
-0.757114
 20
0.626485
 30
0.0
  0
VERTEX
  8
0
 10
-0.376441
 20
0.626485
 30
0.0
 41
0.0
  0
VERTEX
  8
0
 10
0.380162
 20
0.626485
 30
0.0
 40
0.25
 41
0.0
  0
VERTEX
  8
0
 10
0.731442
 20
0.626485
 30
0.0
 41
0.0
  0
SEQEND
  8
0
  0
LINE
  8
0
 10
-0.120844
 20
0.531529
 30
0.0
 11
0.128357
 21
0.278135
 31
0.0
  0
LINE
  8
0
 10
-0.124863
 20
0.278135
 30
0.0
 11
0.128357
 21
0.531529
 31
0.0
  0
ENDBLK
  8
0
  0
BLOCK
  8
0
  2
205
 70
    64
 10
0.0
 20
0.0
 30
0.0
  3
205
  0
CIRCLE
  8
0
 10
-0.000645
 20
-0.000241
 30
0.0
 40
0.252459
  0
POLYLINE
  8
0
 66
     1
 10
0.0
 20
0.0
 30
0.0
  0
VERTEX
  8
0
 10
0.004997
 20
0.252257
 30
0.0
  0
VERTEX
  8
0
 10
0.004997
 20
1.003491
 30
0.0
  0
VERTEX
  8
0
 10
0.433446
 20
1.001269
 30
0.0
  0
SEQEND
  8
0
  0
LINE
  8
0
 10
0.192688
 20
0.999809
 30
0.0
 11
0.008677
 21
0.815682
 31
0.0
  0
LINE
  8
0
 10
0.434339
 20
0.936155
 30
0.0
 11
0.434339
 21
1.056518
 31
0.0
  0
ENDBLK
  8
0
  0
BLOCK
  8
0
  2
206
 70
    64
 10
0.0
 20
0.0
 30
0.0
  3
206
  0
POLYLINE
  8
0
 66
     1
 10
0.0
 20
0.0
 30
0.0
  0
VERTEX
  8
0
 10
0.0
 20
0.0
 30
0.0
  0
VERTEX
  8
0
 10
0.000011
 20
0.816131
 30
0.0
  0
VERTEX
  8
0
 10
0.24774
 20
0.816131
 30
0.0
  0
VERTEX
  8
0
 10
-0.004576
 20
1.187935
 30
0.0
  0
VERTEX
  8
0
 10
-0.252304
 20
0.816131
 30
0.0
  0
VERTEX
  8
0
 10
0.000011
 20
0.816131
 30
0.0
  0
SEQEND
  8
0
  0
LINE
  8
0
 10
-0.252745
 20
0.0
 30
0.0
 11
0.248533
 21
0.0
 31
0.0
  0
ENDBLK
  8
0
  0
BLOCK
  8
0
  2
207
 70
    64
 10
0.0
 20
0.0
 30
0.0
  3
207
  0
LINE
  8
0
 10
-0.248533
 20
0.0
 30
0.0
 11
0.252745
 21
0.0
 31
0.0
  0
LINE
  8
0
 10
0.004213
 20
0.0
 30
0.0
 11
0.0
 21
1.125399
 31
0.0
  0
LINE
  8
0
 10
0.0
 20
1.003165
 30
0.0
 11
0.256958
 21
1.003165
 31
0.0
  0
CIRCLE
  8
0
 10
0.442304
 20
1.003165
 30
0.0
 40
0.185346
  0
ENDBLK
  8
0
  0
BLOCK
  8
0
  2
208
 70
    64
 10
0.0
 20
0.0
 30
0.0
  3
208
  0
CIRCLE
  8
0
 10
0.0
 20
0.0
 30
0.0
 40
0.252459
  0
POLYLINE
  8
0
 66
     1
 10
0.0
 20
0.0
 30
0.0
  0
VERTEX
  8
0
 10
0.0
 20
0.24742
 30
0.0
  0
VERTEX
  8
0
 10
0.0
 20
0.815818
 30
0.0
  0
VERTEX
  8
0
 10
0.247268
 20
0.815818
 30
0.0
  0
VERTEX
  8
0
 10
0.247268
 20
1.063239
 30
0.0
  0
VERTEX
  8
0
 10
-0.25395
 20
1.063239
 30
0.0
  0
VERTEX
  8
0
 10
-0.25395
 20
0.815818
 30
0.0
  0
VERTEX
  8
0
 10
0.0
 20
0.815818
 30
0.0
  0
SEQEND
  8
0
  0
LINE
  8
0
 10
0.0
 20
0.375133
 30
0.0
 11
-0.181134
 21
0.560591
 31
0.0
  0
ENDBLK
  8
0
  0
BLOCK
  8
0
  2
209
 70
    64
 10
0.0
 20
0.0
 30
0.0
  3
209
  0
CIRCLE
  8
0
 10
0.0
 20
0.0
 30
0.0
 40
0.205566
  0
ENDBLK
  8
0
  0
BLOCK
  8
0
  2
210
 70
    64
 10
0.0
 20
0.0
 30
0.0
  3
210
  0
POLYLINE
  8
0
 66
     1
 10
0.0
 20
0.0
 30
0.0
 40
0.25
 41
0.25
  0
VERTEX
  8
0
 10
-0.17336
 20
-0.101816
 30
0.0
 50
30.0
  0
VERTEX
  8
0
 10
0.173171
 20
0.095479
 30
0.0
 50
30.0
  0
SEQEND
  8
0
  0
POLYLINE
  8
0
 66
     1
 10
0.0
 20
0.0
 30
0.0
 70
     1
  0
VERTEX
  8
0
 10
-0.34626
 20
0.00784
 30
0.0
 50
30.0
  0
VERTEX
  8
0
 10
0.171693
 20
0.30688
 30
0.0
 50
30.0
  0
VERTEX
  8
0
 10
0.359929
 20
-0.019153
 30
0.0
 50
30.0
  0
VERTEX
  8
0
 10
-0.158025
 20
-0.318194
 30
0.0
 50
30.0
  0
SEQEND
  8
0
  0
LINE
  8
0
 10
0.000244
 20
0.948315
 30
0.0
 11
0.000244
 21
0.21009
 31
0.0
  0
POLYLINE
  8
0
 66
     1
 10
0.0
 20
0.0
 30
0.0
 41
0.2
  0
VERTEX
  8
0
 10
-0.750132
 20
0.649715
 30
0.0
  0
VERTEX
  8
0
 10
-0.500757
 20
0.646343
 30
0.0
 41
0.0
  0
VERTEX
  8
0
 10
0.500113
 20
0.646343
 30
0.0
 40
0.2
 41
0.0
  0
VERTEX
  8
0
 10
0.749488
 20
0.646343
 30
0.0
 41
0.0
  0
SEQEND
  8
0
  0
POLYLINE
  8
0
 66
     1
 10
0.0
 20
0.0
 30
0.0
 41
0.2
  0
VERTEX
  8
0
 10
-0.604342
 20
0.949178
 30
0.0
  0
VERTEX
  8
0
 10
-0.299804
 20
0.949178
 30
0.0
 41
0.0
  0
VERTEX
  8
0
 10
0.305479
 20
0.949178
 30
0.0
 40
0.2
 41
0.0
  0
VERTEX
  8
0
 10
0.586503
 20
0.949178
 30
0.0
 41
0.0
  0
SEQEND
  8
0
  0
ENDBLK
  8
0
  0
BLOCK
  8
0
  2
211
 70
    64
 10
0.0
 20
0.0
 30
0.0
  3
211
  0
POLYLINE
  8
0
 66
     1
 10
0.0
 20
0.0
 30
0.0
 70
     1
  0
VERTEX
  8
0
 10
-0.52486
 20
0.296038
 30
0.0
  0
VERTEX
  8
0
 10
0.52486
 20
0.296038
 30
0.0
  0
VERTEX
  8
0
 10
0.52486
 20
-0.253065
 30
0.0
  0
VERTEX
  8
0
 10
0.224258
 20
-0.253065
 30
0.0
  0
VERTEX
  8
0
 10
0.224258
 20
0.0
 30
0.0
  0
VERTEX
  8
0
 10
-0.224258
 20
0.0
 30
0.0
  0
VERTEX
  8
0
 10
-0.224258
 20
-0.253065
 30
0.0
  0
VERTEX
  8
0
 10
-0.52486
 20
-0.253065
 30
0.0
  0
SEQEND
  8
0
  0
POLYLINE
  8
0
 66
     1
 10
0.0
 20
0.0
 30
0.0
  0
VERTEX
  8
0
 10
0.0
 20
0.0
 30
0.0
 50
150.0
  0
VERTEX
  8
0
 10
-0.226804
 20
-0.392835
 30
0.0
 40
0.2
 50
150.0
  0
VERTEX
  8
0
 10
-0.374823
 20
-0.649212
 30
0.0
 50
150.0
  0
SEQEND
  8
0
  0
ENDBLK
  8
0
  0
BLOCK
  8
0
  2
212
 70
    64
 10
0.0
 20
0.0
 30
0.0
  3
212
  0
CIRCLE
  8
0
 10
0.0
 20
0.0
 30
0.0
 40
0.205566
  0
LINE
  8
0
 10
-0.1002
 20
0.176668
 30
0.0
 11
-0.1002
 21
0.549104
 31
0.0
  0
LINE
  8
0
 10
-0.300601
 20
0.549104
 30
0.0
 11
0.248115
 21
0.549104
 31
0.0
  0
LINE
  8
0
 10
0.1002
 20
0.176668
 30
0.0
 11
0.1002
 21
0.549104
 31
0.0
  0
ENDBLK
  8
0
  0
BLOCK
  8
0
  2
213
 70
    64
 10
0.0
 20
0.0
 30
0.0
  3
213
  0
LINE
  8
0
 10
-0.248115
 20
0.0
 30
0.0
 11
0.248115
 21
0.0
 31
0.0
  0
LINE
  8
0
 10
0.0
 20
0.802169
 30
0.0
 11
0.0
 21
0.0
 31
0.0
  0
CIRCLE
  8
0
 10
0.171772
 20
0.802169
 30
0.0
 40
0.176544
  0
CIRCLE
  8
0
 10
-0.174158
 20
0.501355
 30
0.0
 40
0.174158
  0
ENDBLK
  8
0
  0
BLOCK
  8
0
  2
214
 70
    64
 10
0.0
 20
0.0
 30
0.0
  3
214
  0
CIRCLE
  8
0
 10
0.002386
 20
0.0
 30
0.0
 40
0.174158
  0
LINE
  8
0
 10
-0.572574
 20
0.0
 30
0.0
 11
-0.171772
 21
0.0
 31
0.0
  0
POLYLINE
  8
0
 66
     1
 10
0.0
 20
0.0
 30
0.0
  0
VERTEX
  8
0
 10
-0.572574
 20
-0.300601
 30
0.0
 50
90.0
  0
VERTEX
  8
0
 10
-0.271761
 20
-0.147915
 30
0.0
 50
90.0
  0
VERTEX
  8
0
 10
-0.572574
 20
0.0
 30
0.0
 50
90.0
  0
VERTEX
  8
0
 10
-0.271761
 20
0.147915
 30
0.0
 50
90.0
  0
VERTEX
  8
0
 10
-0.572574
 20
0.300601
 30
0.0
 50
90.0
  0
SEQEND
  8
0
  0
ENDBLK
  8
0
  0
BLOCK
  8
0
  2
3
 70
    64
 10
0.0
 20
0.0
 30
0.0
  3
3
  0
POLYLINE
  8
0
 66
     1
 10
0.0
 20
0.0
 30
0.0
 70
     1
 40
0.6
 41
0.6
  0
VERTEX
  8
0
 10
-0.247631
 20
0.303568
 30
0.0
  0
VERTEX
  8
0
 10
0.352874
 20
0.303568
 30
0.0
  0
VERTEX
  8
0
 10
0.352874
 20
-0.297372
 30
0.0
  0
VERTEX
  8
0
 10
-0.247631
 20
-0.297372
 30
0.0
  0
SEQEND
  8
0
  0
ENDBLK
  8
0
  0
BLOCK
  8
0
  2
222
 70
    64
 10
0.0
 20
0.0
 30
0.0
  3
222
  0
POLYLINE
  8
0
 66
     1
 10
0.0
 20
0.0
 30
0.0
 41
0.5
  0
VERTEX
  8
0
 10
0.0
 20
0.247272
 30
0.0
  0
VERTEX
  8
0
 10
0.0
 20
0.0
 30
0.0
 40
0.5
 41
0.0
  0
VERTEX
  8
0
 10
0.0
 20
-0.247272
 30
0.0
 41
0.0
  0
SEQEND
  8
0
  0
CIRCLE
  8
0
 10
0.0
 20
0.0
 30
0.0
 40
0.219726
  0
CIRCLE
  8
0
 10
0.0
 20
0.0
 30
0.0
 40
0.249437
  0
ENDBLK
  8
0
  0
BLOCK
  8
0
  2
221
 70
     0
 10
0.0
 20
0.0
 30
0.0
  3
221
  0
CIRCLE
  8
0
 10
-0.001156
 20
-0.000025
 30
0.0
 40
0.252459
  0
LINE
  8
0
 10
0.0
 20
0.797688
 30
0.0
 11
0.0
 21
0.250321
 31
0.0
  0
LINE
  8
0
 10
0.0
 20
0.797688
 30
0.0
 11
-0.250219
 21
0.877791
 31
0.0
  0
LINE
  8
0
 10
0.250219
 20
0.874453
 30
0.0
 11
0.0
 21
0.797688
 31
0.0
  0
LINE
  8
0
 10
0.125819
 20
0.996343
 30
0.0
 11
0.373086
 21
0.748923
 31
0.0
  0
LINE
  8
0
 10
0.373086
 20
0.996343
 30
0.0
 11
0.125819
 21
0.748923
 31
0.0
  0
LINE
  8
0
 10
-0.371739
 20
1.001088
 30
0.0
 11
-0.122595
 21
0.751805
 31
0.0
  0
LINE
  8
0
 10
-0.122595
 20
1.001088
 30
0.0
 11
-0.371739
 21
0.755761
 31
0.0
  0
ENDBLK
  8
0
  0
BLOCK
  8
0
  2
229
 70
    64
 10
0.0
 20
0.0
 30
0.0
  3
229
  0
POLYLINE
  8
0
 66
     1
 10
0.0
 20
0.0
 30
0.0
 40
0.5
  0
VERTEX
  8
0
 10
0.0
 20
0.0
 30
0.0
  0
VERTEX
  8
0
 10
0.0
 20
-0.250707
 30
0.0
 40
0.0
  0
SEQEND
  8
0
  0
CIRCLE
  8
0
 10
0.004183
 20
-0.002093
 30
0.0
 40
0.249211
  0
LINE
  8
0
 10
0.0
 20
0.243838
 30
0.0
 11
0.0
 21
0.721211
 31
0.0
  0
LINE
  8
0
 10
0.202461
 20
0.899796
 30
0.0
 11
-0.199029
 21
0.549494
 31
0.0
  0
LINE
  8
0
 10
-0.199029
 20
0.899796
 30
0.0
 11
0.199029
 21
0.549494
 31
0.0
  0
ENDBLK
  8
0
  0
BLOCK
  8
0
  2
235
 70
    64
 10
0.0
 20
0.0
 30
0.0
  3
235
  0
POLYLINE
  8
0
 66
     1
 10
0.0
 20
0.0
 30
0.0
 70
     1
  0
VERTEX
  8
0
 10
-0.427041
 20
0.22362
 30
0.0
  0
VERTEX
  8
0
 10
0.423705
 20
-0.226957
 30
0.0
  0
VERTEX
  8
0
 10
0.423705
 20
0.22362
 30
0.0
  0
VERTEX
  8
0
 10
-0.427041
 20
-0.226957
 30
0.0
  0
SEQEND
  8
0
  0
ENDBLK
  8
0
  0
BLOCK
  8
0
  2
228
 70
    64
 10
0.0
 20
0.0
 30
0.0
  3
228
  0
CIRCLE
  8
0
 10
0.000976
 20
-0.004539
 30
0.0
 40
0.252459
  0
POLYLINE
  8
0
 66
     1
 10
0.0
 20
0.0
 30
0.0
 40
0.5
  0
VERTEX
  8
0
 10
0.0
 20
0.0
 30
0.0
  0
VERTEX
  8
0
 10
0.0
 20
-0.250707
 30
0.0
 40
0.0
  0
SEQEND
  8
0
  0
POLYLINE
  8
0
 66
     1
 10
0.0
 20
0.0
 30
0.0
  0
VERTEX
  8
0
 10
0.250503
 20
0.865453
 30
0.0
  0
VERTEX
  8
0
 10
0.0
 20
0.75212
 30
0.0
  0
VERTEX
  8
0
 10
0.0
 20
0.250707
 30
0.0
  0
SEQEND
  8
0
  0
LINE
  8
0
 10
0.0
 20
0.75212
 30
0.0
 11
-0.250503
 21
0.868887
 31
0.0
  0
LINE
  8
0
 10
-0.369607
 20
0.996574
 30
0.0
 11
-0.120463
 21
0.747291
 31
0.0
  0
LINE
  8
0
 10
-0.120463
 20
0.996574
 30
0.0
 11
-0.369607
 21
0.751247
 31
0.0
  0
LINE
  8
0
 10
0.375218
 20
0.991829
 30
0.0
 11
0.127951
 21
0.744409
 31
0.0
  0
LINE
  8
0
 10
0.127951
 20
0.991829
 30
0.0
 11
0.375218
 21
0.744409
 31
0.0
  0
ENDBLK
  8
0
  0
BLOCK
  8
0
  2
231
 70
    64
 10
0.0
 20
0.0
 30
0.0
  3
231
  0
CIRCLE
  8
0
 10
-0.000025
 20
0.001156
 30
0.0
 40
0.252459
  0
POLYLINE
  8
0
 66
     1
 10
0.0
 20
0.0
 30
0.0
  0
VERTEX
  8
0
 10
0.871612
 20
-0.250707
 30
0.0
  0
VERTEX
  8
0
 10
0.871612
 20
0.0
 30
0.0
  0
VERTEX
  8
0
 10
0.250503
 20
0.0
 30
0.0
  0
SEQEND
  8
0
  0
LINE
  8
0
 10
0.996343
 20
-0.373086
 30
0.0
 11
0.748923
 21
-0.125819
 31
0.0
  0
LINE
  8
0
 10
0.996343
 20
-0.125819
 30
0.0
 11
0.748923
 21
-0.373086
 31
0.0
  0
ENDBLK
  8
0
  0
BLOCK
  8
0
  2
233
 70
    64
 10
0.0
 20
0.0
 30
0.0
  3
233
  0
POLYLINE
  8
0
 66
     1
 10
0.0
 20
0.0
 30
0.0
  0
VERTEX
  8
0
 10
-0.528458
 20
0.175151
 30
0.0
  0
VERTEX
  8
0
 10
0.374038
 20
0.175151
 30
0.0
  0
VERTEX
  8
0
 10
0.374038
 20
-0.178586
 30
0.0
  0
VERTEX
  8
0
 10
-0.37747
 20
-0.178586
 30
0.0
  0
VERTEX
  8
0
 10
-0.37747
 20
0.175151
 30
0.0
  0
SEQEND
  8
0
  0
LINE
  8
0
 10
0.374038
 20
0.175151
 30
0.0
 11
0.521594
 21
0.175151
 31
0.0
  0
ENDBLK
  8
0
  0
BLOCK
  8
0
  2
234
 70
    64
 10
0.0
 20
0.0
 30
0.0
  3
234
  0
POLYLINE
  8
0
 66
     1
 10
0.0
 20
0.0
 30
0.0
 70
     1
  0
VERTEX
  8
0
 10
-0.329428
 20
0.322828
 30
0.0
  0
VERTEX
  8
0
 10
0.322565
 20
0.322828
 30
0.0
  0
VERTEX
  8
0
 10
0.322565
 20
-0.326262
 30
0.0
  0
VERTEX
  8
0
 10
-0.329428
 20
-0.326262
 30
0.0
  0
SEQEND
  8
0
  0
LINE
  8
0
 10
0.322565
 20
0.322828
 30
0.0
 11
0.120104
 21
0.120202
 31
0.0
  0
LINE
  8
0
 10
0.322565
 20
-0.326262
 30
0.0
 11
0.120104
 21
-0.12707
 31
0.0
  0
LINE
  8
0
 10
-0.33286
 20
-0.329696
 30
0.0
 11
-0.13383
 21
-0.12707
 31
0.0
  0
LINE
  8
0
 10
-0.329428
 20
0.322828
 30
0.0
 11
-0.13383
 21
0.120202
 31
0.0
  0
ENDBLK
  8
0
  0
BLOCK
  8
0
  2
232
 70
    64
 10
0.0
 20
0.0
 30
0.0
  3
232
  0
POLYLINE
  8
0
 66
     1
 10
0.0
 20
0.0
 30
0.0
  0
VERTEX
  8
0
 10
-0.350017
 20
0.69717
 30
0.0
  0
VERTEX
  8
0
 10
0.0
 20
0.69717
 30
0.0
  0
VERTEX
  8
0
 10
0.0
 20
0.346868
 30
0.0
  0
VERTEX
  8
0
 10
-0.350017
 20
0.346868
 30
0.0
  0
VERTEX
  8
0
 10
-0.350017
 20
-0.401817
 30
0.0
  0
VERTEX
  8
0
 10
0.350017
 20
-0.401817
 30
0.0
  0
VERTEX
  8
0
 10
0.350017
 20
0.346868
 30
0.0
  0
VERTEX
  8
0
 10
0.0
 20
0.346868
 30
0.0
  0
SEQEND
  8
0
  0
LINE
  8
0
 10
0.0
 20
0.69717
 30
0.0
 11
0.350017
 21
0.69717
 31
0.0
  0
LINE
  8
0
 10
-0.353449
 20
0.048081
 30
0.0
 11
0.350017
 21
0.048081
 31
0.0
  0
ENDBLK
  8
0
  0
BLOCK
  8
0
  2
236
 70
    64
 10
0.0
 20
0.0
 30
0.0
  3
236
  0
POLYLINE
  8
0
 66
     1
 10
0.0
 20
0.0
 30
0.0
 41
1.0
  0
VERTEX
  8
0
 10
0.0
 20
0.449898
 30
0.0
  0
VERTEX
  8
0
 10
0.0
 20
0.0
 30
0.0
 40
1.0
 41
0.0
  0
VERTEX
  8
0
 10
0.0
 20
-0.497979
 30
0.0
 41
0.0
  0
SEQEND
  8
0
  0
ENDBLK
  8
0
  0
BLOCK
  8
0
  2
230
 70
    64
 10
0.0
 20
0.0
 30
0.0
  3
230
  0
POLYLINE
  8
0
 66
     1
 10
0.0
 20
0.0
 30
0.0
  0
VERTEX
  8
0
 10
0.0
 20
0.250707
 30
0.0
  0
VERTEX
  8
0
 10
0.0
 20
0.875756
 30
0.0
  0
VERTEX
  8
0
 10
0.247071
 20
0.875756
 30
0.0
  0
SEQEND
  8
0
  0
CIRCLE
  8
0
 10
-0.001156
 20
-0.000025
 30
0.0
 40
0.252459
  0
POLYLINE
  8
0
 66
     1
 10
0.0
 20
0.0
 30
0.0
 40
0.5
  0
VERTEX
  8
0
 10
0.0
 20
0.0
 30
0.0
  0
VERTEX
  8
0
 10
0.0
 20
-0.250707
 30
0.0
 40
0.0
  0
SEQEND
  8
0
  0
LINE
  8
0
 10
0.373086
 20
0.996343
 30
0.0
 11
0.125819
 21
0.748923
 31
0.0
  0
LINE
  8
0
 10
0.125819
 20
0.996343
 30
0.0
 11
0.373086
 21
0.748923
 31
0.0
  0
ENDBLK
  8
0
  0
BLOCK
  8
0
  2
21
 70
    64
 10
0.0
 20
0.0
 30
0.0
  3
21
  0
CIRCLE
  8
0
 10
0.0
 20
0.0
 30
0.0
 40
0.099484
  0
POLYLINE
  8
0
 66
     1
 10
0.0
 20
0.0
 30
0.0
 70
     1
  0
VERTEX
  8
0
 10
-0.500262
 20
-0.522648
 30
0.0
  0
VERTEX
  8
0
 10
0.499472
 20
-0.521442
 30
0.0
  0
VERTEX
  8
0
 10
0.499472
 20
0.456926
 30
0.0
  0
VERTEX
  8
0
 10
-0.499851
 20
0.456926
 30
0.0
  0
SEQEND
  8
0
  0
ENDBLK
  8
0
  0
BLOCK
  8
0
  2
249
 70
     0
 10
0.0
 20
0.0
 30
0.0
  3
249
  0
POLYLINE
  8
0
 66
     1
 10
0.0
 20
0.0
 30
0.0
  0
VERTEX
  8
0
 10
-0.000604
 20
-0.999816
 30
0.0
  0
VERTEX
  8
0
 10
-0.000604
 20
-0.398314
 30
0.0
 40
0.3
  0
VERTEX
  8
0
 10
-0.000604
 20
0.00407
 30
0.0
  0
SEQEND
  8
0
  0
ENDBLK
  8
0
  0
BLOCK
  8
0
  2
250
 70
    64
 10
0.0
 20
0.0
 30
0.0
  3
250
  0
POLYLINE
  8
0
 66
     1
 10
0.0
 20
0.0
 30
0.0
  0
VERTEX
  8
0
 10
-0.000604
 20
-0.999816
 30
0.0
  0
VERTEX
  8
0
 10
-0.000604
 20
-0.398314
 30
0.0
 40
0.3
  0
VERTEX
  8
0
 10
-0.000604
 20
0.00407
 30
0.0
  0
SEQEND
  8
0
  0
ENDBLK
  8
0
  0
BLOCK
  8
0
  2
251
 70
    64
 10
0.0
 20
0.0
 30
0.0
  3
251
  0
POLYLINE
  8
0
 66
     1
 10
0.0
 20
0.0
 30
0.0
  0
VERTEX
  8
0
 10
0.552392
 20
0.249678
 30
0.0
  0
VERTEX
  8
0
 10
0.552392
 20
-0.249075
 30
0.0
  0
VERTEX
  8
0
 10
-0.551412
 20
-0.249527
 30
0.0
  0
SEQEND
  8
0
  0
POLYLINE
  8
0
 66
     1
 10
0.0
 20
0.0
 30
0.0
 40
1.1
  0
VERTEX
  8
0
 10
0.0
 20
0.249527
 30
0.0
  0
VERTEX
  8
0
 10
0.0
 20
0.0
 30
0.0
 40
0.0
  0
SEQEND
  8
0
  0
POLYLINE
  8
0
 66
     1
 10
0.0
 20
0.0
 30
0.0
 40
0.5
  0
VERTEX
  8
0
 10
-0.551412
 20
0.0
 30
0.0
  0
VERTEX
  8
0
 10
0.0
 20
0.0
 30
0.0
 40
0.0
  0
SEQEND
  8
0
  0
ENDBLK
  8
0
  0
BLOCK
  8
0
  2
252
 70
    64
 10
0.0
 20
0.0
 30
0.0
  3
252
  0
POLYLINE
  8
0
 66
     1
 10
0.0
 20
0.0
 30
0.0
  0
VERTEX
  8
0
 10
0.249486
 20
0.549622
 30
0.0
  0
VERTEX
  8
0
 10
-0.249906
 20
0.549622
 30
0.0
  0
VERTEX
  8
0
 10
-0.249885
 20
-0.549554
 30
0.0
  0
SEQEND
  8
0
  0
POLYLINE
  8
0
 66
     1
 10
0.0
 20
0.0
 30
0.0
 40
0.5
  0
VERTEX
  8
0
 10
0.0
 20
-0.549517
 30
0.0
  0
VERTEX
  8
0
 10
0.0
 20
0.0
 30
0.0
 40
0.0
  0
SEQEND
  8
0
  0
POLYLINE
  8
0
 66
     1
 10
0.0
 20
0.0
 30
0.0
 40
1.1
  0
VERTEX
  8
0
 10
0.249328
 20
0.0
 30
0.0
  0
VERTEX
  8
0
 10
0.0
 20
0.0
 30
0.0
 40
0.0
  0
SEQEND
  8
0
  0
ENDBLK
  8
0
  0
ENDSEC
  0
SECTION
  2
ENTITIES
  0
INSERT
  8
0
  2
3
 10
0.149682
 20
0.249258
 30
0.0
 41
0.25
 42
0.25
 43
0.25
  0
INSERT
  8
0
  2
5
 10
0.551232
 20
0.250699
 30
0.0
 41
0.25
 42
0.25
 43
0.25
  0
TEXT
  8
0
 10
0.099308
 20
0.001441
 30
0.0
 40
0.08
  1
3
  0
TEXT
  8
0
 10
0.503737
 20
0.007204
 30
0.0
 40
0.08
  1
5
  0
INSERT
  8
0
  2
6
 10
0.948677
 20
0.252543
 30
0.0
 41
0.25
 42
0.25
 43
0.25
  0
TEXT
  8
0
 10
0.925468
 20
0.011611
 30
0.0
 40
0.08
  1
6
  0
INSERT
  8
0
  2
26
 10
1.349588
 20
0.24781
 30
0.0
 41
0.25
 42
0.25
 43
0.25
  0
INSERT
  8
0
  2
47
 10
1.646744
 20
0.24781
 30
0.0
 41
0.25
 42
0.25
 43
0.25
  0
TEXT
  8
0
 10
1.293871
 20
0.006195
 30
0.0
 40
0.08
  1
26
  0
TEXT
  8
0
 10
1.597218
 20
0.006195
 30
0.0
 40
0.08
  1
47
  0
INSERT
  8
0
  2
171
 10
1.999618
 20
0.24781
 30
0.0
 41
0.25
 42
0.25
 43
0.25
  0
INSERT
  8
0
  2
172
 10
2.346301
 20
0.24781
 30
0.0
 41
0.25
 42
0.25
 43
0.25
  0
INSERT
  8
0
  2
173
 10
2.649649
 20
0.24781
 30
0.0
 41
0.25
 42
0.25
 43
0.25
  0
INSERT
  8
0
  2
174
 10
3.194437
 20
0.241615
 30
0.0
 41
0.25
 42
0.25
 43
0.25
  0
TEXT
  8
0
 10
1.888184
 20
0.0
 30
0.0
 40
0.08
  1
171   172 173   174
  0
INSERT
  8
0
  2
175
 10
3.796536
 20
0.247985
 30
0.0
 41
0.25
 42
0.25
 43
0.25
  0
INSERT
  8
0
  2
176
 10
4.248121
 20
0.247985
 30
0.0
 41
0.25
 42
0.25
 43
0.25
  0
INSERT
  8
0
  2
178
 10
4.897962
 20
0.247985
 30
0.0
 41
0.25
 42
0.25
 43
0.25
  0
INSERT
  8
0
  2
180
 10
5.498238
 20
0.247985
 30
0.0
 41
0.25
 42
0.25
 43
0.25
  0
INSERT
  8
0
  2
181
 10
5.845187
 20
0.247985
 30
0.0
 41
0.25
 42
0.25
 43
0.25
  0
TEXT
  8
0
 10
3.691901
 20
0.0
 30
0.0
 40
0.08
  1
175   176
  0
TEXT
  8
0
 10
5.76258
 20
0.0
 30
0.0
 40
0.08
  1
181
  0
INSERT
  8
0
  2
177
 10
4.545505
 20
0.297582
 30
0.0
 41
0.25
 42
0.25
 43
0.25
  0
TEXT
  8
0
 10
4.429856
 20
0.0
 30
0.0
 40
0.08
  1
177
  0
INSERT
  8
0
  2
182
 10
6.146826
 20
0.24781
 30
0.0
 41
0.25
 42
0.25
 43
0.25
  0
INSERT
  8
0
  2
183
 10
6.4997
 20
0.24781
 30
0.0
 41
0.25
 42
0.25
 43
0.25
  0
INSERT
  8
0
  2
184
 10
6.945435
 20
0.24781
 30
0.0
 41
0.25
 42
0.25
 43
0.25
  0
INSERT
  8
0
  2
185
 10
7.298309
 20
0.24781
 30
0.0
 41
0.25
 42
0.25
 43
0.25
  0
TEXT
  8
0
 10
6.02301
 20
0.0
 30
0.0
 40
0.08
  1
182  183   184  185
  0
INSERT
  8
0
  2
188
 10
0.79728
 20
0.948676
 30
0.0
 41
0.25
 42
0.25
 43
0.25
  0
INSERT
  8
0
  2
189
 10
1.19592
 20
0.948676
 30
0.0
 41
0.25
 42
0.25
 43
0.25
  0
INSERT
  8
0
  2
190
 10
1.49733
 20
0.948676
 30
0.0
 41
0.25
 42
0.25
 43
0.25
  0
INSERT
  8
0
  2
191
 10
1.750127
 20
0.948676
 30
0.0
 41
0.25
 42
0.25
 43
0.25
  0
INSERT
  8
0
  2
192
 10
1.998061
 20
0.948676
 30
0.0
 41
0.25
 42
0.25
 43
0.25
  0
INSERT
  8
0
  2
193
 10
2.245996
 20
0.948676
 30
0.0
 41
0.25
 42
0.25
 43
0.25
  0
INSERT
  8
0
  2
194
 10
2.450177
 20
0.948676
 30
0.0
 41
0.25
 42
0.25
 43
0.25
  0
TEXT
  8
0
 10
0.048615
 20
0.749211
 30
0.0
 40
0.08
  1
186 187  188  189
  0
TEXT
  8
0
 10
1.414686
 20
0.749211
 30
0.0
 40
0.08
  1
190 191
  0
TEXT
  8
0
 10
1.934862
 20
0.749211
 30
0.0
 40
0.08
  1
192
  0
TEXT
  8
0
 10
2.187658
 20
0.749211
 30
0.0
 40
0.08
  1
193
  0
TEXT
  8
0
 10
2.435593
 20
0.744346
 30
0.0
 40
0.08
  1
194 
  0
TEXT
  8
0
 10
2.698112
 20
0.749211
 30
0.0
 40
0.08
  1
195
  0
INSERT
  8
0
  2
186
 10
0.126398
 20
0.948676
 30
0.0
 41
0.25
 42
0.25
 43
0.25
  0
INSERT
  8
0
  2
187
 10
0.422947
 20
0.948676
 30
0.0
 41
0.25
 42
0.25
 43
0.25
  0
INSERT
  8
0
  2
195
 10
2.771034
 20
0.948676
 30
0.0
 41
0.25
 42
0.25
 43
0.25
  0
INSERT
  8
0
  2
196
 10
3.147265
 20
0.947855
 30
0.0
 41
0.25
 42
0.25
 43
0.25
  0
INSERT
  8
0
  2
197
 10
3.499721
 20
0.947855
 30
0.0
 41
0.25
 42
0.25
 43
0.25
  0
INSERT
  8
0
  2
198
 10
3.896234
 20
0.947855
 30
0.0
 41
0.25
 42
0.25
 43
0.25
  0
INSERT
  8
0
  2
199
 10
4.199126
 20
0.947855
 30
0.0
 41
0.25
 42
0.25
 43
0.25
  0
INSERT
  8
0
  2
200
 10
4.446947
 20
0.947855
 30
0.0
 41
0.25
 42
0.25
 43
0.25
  0
INSERT
  8
0
  2
201
 10
4.694768
 20
0.947855
 30
0.0
 41
0.25
 42
0.25
 43
0.25
  0
INSERT
  8
0
  2
202
 10
4.948095
 20
0.947855
 30
0.0
 41
0.25
 42
0.25
 43
0.25
  0
INSERT
  8
0
  2
203
 10
5.195916
 20
0.947855
 30
0.0
 41
0.25
 42
0.25
 43
0.25
  0
INSERT
  8
0
  2
204
 10
5.498808
 20
0.947855
 30
0.0
 41
0.25
 42
0.25
 43
0.25
  0
TEXT
  8
0
 10
3.048137
 20
0.749467
 30
0.0
 40
0.08
  1
196  197  198 199 200 
  0
TEXT
  8
0
 10
4.639696
 20
0.743956
 30
0.0
 40
0.08
  1
201 
  0
TEXT
  8
0
 10
4.876503
 20
0.743956
 30
0.0
 40
0.08
  1
202
  0
TEXT
  8
0
 10
5.140845
 20
0.743956
 30
0.0
 40
0.08
  1
203 204
  0
INSERT
  8
0
  2
205
 10
5.849897
 20
0.949143
 30
0.0
 41
0.25
 42
0.25
 43
0.25
  0
INSERT
  8
0
  2
206
 10
6.098819
 20
0.949143
 30
0.0
 41
0.25
 42
0.25
 43
0.25
  0
INSERT
  8
0
  2
207
 10
6.347741
 20
0.949143
 30
0.0
 41
0.25
 42
0.25
 43
0.25
  0
INSERT
  8
0
  2
208
 10
6.699665
 20
0.949143
 30
0.0
 41
0.25
 42
0.25
 43
0.25
  0
INSERT
  8
0
  2
209
 10
6.995797
 20
0.949143
 30
0.0
 41
0.25
 42
0.25
 43
0.25
  0
INSERT
  8
0
  2
210
 10
7.399222
 20
0.949143
 30
0.0
 41
0.25
 42
0.25
 43
0.25
  0
TEXT
  8
0
 10
5.751186
 20
0.742994
 30
0.0
 40
0.08
  1
205 
  0
TEXT
  8
0
 10
6.043026
 20
0.747289
 30
0.0
 40
0.08
  1
206 
  0
TEXT
  8
0
 10
6.300531
 20
0.742994
 30
0.0
 40
0.08
  1
207 208 209  210
  0
INSERT
  8
0
  2
212
 10
0.59954
 20
1.69714
 30
0.0
 41
0.25
 42
0.25
 43
0.25
  0
INSERT
  8
0
  2
211
 10
0.196992
 20
1.69714
 30
0.0
 41
0.25
 42
0.25
 43
0.25
  0
INSERT
  8
0
  2
213
 10
0.847921
 20
1.69714
 30
0.0
 41
0.25
 42
0.25
 43
0.25
  0
INSERT
  8
0
  2
214
 10
1.246188
 20
1.69714
 30
0.0
 41
0.25
 42
0.25
 43
0.25
  0
INSERT
  8
0
  2
215
 10
1.545958
 20
1.69714
 30
0.0
 41
0.25
 42
0.25
 43
0.25
  0
INSERT
  8
0
  2
216
 10
1.807186
 20
1.69714
 30
0.0
 41
0.25
 42
0.25
 43
0.25
  0
INSERT
  8
0
  2
217
 10
2.047002
 20
1.69714
 30
0.0
 41
0.25
 42
0.25
 43
0.25
  0
TEXT
  8
0
 10
0.047107
 20
1.397216
 30
0.0
 40
0.08
  1
211   212 213  214 215 216 
  0
TEXT
  8
0
 10
1.969918
 20
1.397216
 30
0.0
 40
0.08
  1
217
  0
INSERT
  8
0
  2
218
 10
2.346202
 20
1.698114
 30
0.0
 41
0.25
 42
0.25
 43
0.25
  0
INSERT
  8
0
  2
219
 10
2.698992
 20
1.698114
 30
0.0
 41
0.25
 42
0.25
 43
0.25
  0
INSERT
  8
0
  2
220
 10
3.099349
 20
1.698114
 30
0.0
 41
0.25
 42
0.25
 43
0.25
  0
TEXT
  8
0
 10
2.247104
 20
1.39267
 30
0.0
 40
0.08
  1
218  219  220
  0
TEXT
  8
0
 10
4.77226
 20
0.0
 30
0.0
 40
0.08
  1
178
  0
TEXT
  8
0
 10
5.370106
 20
0.0
 30
0.0
 40
0.08
  1
180
  0
INSERT
  8
0
  2
222
 10
3.498944
 20
1.698488
 30
0.0
 41
0.5
 42
0.5
 43
0.5
  0
INSERT
  8
0
  2
228
 10
3.898786
 20
1.648078
 30
0.0
 41
0.3
 42
0.3
 43
0.3
  0
INSERT
  8
0
  2
229
 10
4.197879
 20
1.648078
 30
0.0
 41
0.3
 42
0.3
 43
0.3
  0
INSERT
  8
0
  2
230
 10
4.449748
 20
1.648078
 30
0.0
 41
0.3
 42
0.3
 43
0.3
  0
TEXT
  8
0
 10
3.398197
 20
1.399181
 30
0.0
 40
0.08
  1
222
  0
TEXT
  8
0
 10
3.798038
 20
1.399181
 30
0.0
 40
0.08
  1
228
  0
TEXT
  8
0
 10
4.119171
 20
1.399181
 30
0.0
 40
0.08
  1
229
  0
TEXT
  8
0
 10
4.383633
 20
1.399181
 30
0.0
 40
0.08
  1
230
  0
INSERT
  8
0
  2
231
 10
4.798207
 20
1.649056
 30
0.0
 41
0.3
 42
0.3
 43
0.3
  0
INSERT
  8
0
  2
232
 10
5.347474
 20
1.649056
 30
0.0
 41
0.3
 42
0.3
 43
0.3
  0
INSERT
  8
0
  2
233
 10
5.702882
 20
1.658753
 30
0.0
 41
0.3
 42
0.3
 43
0.3
  0
INSERT
  8
0
  2
234
 10
6.097062
 20
1.697544
 30
0.0
 41
0.3
 42
0.3
 43
0.3
  0
TEXT
  8
0
 10
4.749743
 20
1.396914
 30
0.0
 40
0.08
  1
231
  0
TEXT
  8
0
 10
5.247314
 20
1.396914
 30
0.0
 40
0.08
  1
232
  0
TEXT
  8
0
 10
5.586567
 20
1.396914
 30
0.0
 40
0.08
  1
233
  0
TEXT
  8
0
 10
5.996901
 20
1.396914
 30
0.0
 40
0.08
  1
234
  0
INSERT
  8
0
  2
235
 10
6.449592
 20
1.698003
 30
0.0
 41
0.3
 42
0.3
 43
0.3
  0
INSERT
  8
0
  2
236
 10
6.851378
 20
1.698003
 30
0.0
 41
0.3
 42
0.3
 43
0.3
  0
TEXT
  8
0
 10
6.348462
 20
1.399875
 30
0.0
 40
0.08
  1
235
  0
TEXT
  8
0
 10
6.747515
 20
1.399875
 30
0.0
 40
0.08
  1
236
  0
INSERT
  8
0
  2
21
 10
7.799889
 20
0.25373
 30
0.0
 41
0.25
 42
0.25
 43
0.25
  0
TEXT
  8
0
 10
7.744709
 20
0.021076
 30
0.0
 40
0.08
  1
21
  0
INSERT
  8
0
  2
250
 10
7.350024
 20
1.850662
 30
0.0
 41
0.25
 42
0.25
 43
0.25
  0
TEXT
  8
0
 10
7.288231
 20
1.400756
 30
0.0
 40
0.08
  1
250
  0
INSERT
  8
0
  2
251
 10
7.805357
 20
1.702977
 30
0.0
 41
0.25
 42
0.25
 43
0.25
  0
INSERT
  8
0
  2
252
 10
7.800155
 20
1.141541
 30
0.0
 41
0.25
 42
0.25
 43
0.25
  0
TEXT
  8
0
 10
7.701317
 20
1.401465
 30
0.0
 40
0.08
  1
251
  0
TEXT
  8
0
 10
7.706519
 20
0.751654
 30
0.0
 40
0.08
  1
252
  0
ENDSEC
  0
EOF
